<?xml version="1.0" standalone="no"?>
<!DOCTYPE svg PUBLIC "-//W3C//DTD SVG 20010904//EN"
 "http://www.w3.org/TR/2001/REC-SVG-20010904/DTD/svg10.dtd">
<svg version="1.0" xmlns="http://www.w3.org/2000/svg"
 width="556.000000pt" height="556.000000pt" viewBox="0 0 556.000000 556.000000"
 preserveAspectRatio="xMidYMid meet">
<metadata>
Created by potrace 1.14, written by Peter Selinger 2001-2017
</metadata>
<g transform="translate(0.000000,556.000000) scale(0.100000,-0.100000)"
fill="#000000" stroke="none">
<path d="M2695 5090 c-11 -5 -378 -127 -815 -271 -1004 -330 -1043 -343 -1033
-346 4 -1 98 -31 208 -67 110 -35 335 -108 500 -161 285 -91 778 -251 1040
-336 67 -21 128 -39 136 -39 8 0 69 18 135 39 65 22 247 81 404 131 285 92
532 172 730 236 57 19 111 34 119 34 16 0 7 13 -12 16 -7 1 -38 5 -71 8 -32 4
-68 9 -80 11 -19 3 -48 7 -153 21 -81 10 -110 14 -133 19 -14 2 -47 7 -75 10
-85 11 -109 14 -145 19 -19 3 -55 8 -80 11 -25 4 -58 8 -75 11 -16 3 -43 7
-60 9 -16 2 -52 7 -80 10 -27 4 -61 8 -75 10 -28 4 -168 24 -215 30 -25 3 -34
-1 -49 -24 -33 -48 -102 -63 -161 -35 -45 21 -69 59 -71 115 -2 38 3 52 27 82
31 38 81 60 123 54 36 -4 84 -42 102 -81 l16 -32 136 -18 c76 -10 146 -20 157
-21 11 -2 43 -6 70 -10 28 -3 113 -15 190 -26 146 -20 193 -26 260 -35 22 -2
51 -7 65 -9 14 -3 43 -7 65 -10 61 -7 257 -35 280 -39 11 -2 48 -7 81 -11 l62
-7 -1 -164 c0 -149 -2 -166 -19 -175 -24 -13 -48 -61 -48 -97 0 -16 9 -41 20
-55 11 -14 20 -31 20 -39 0 -7 -21 -76 -45 -152 -33 -103 -42 -142 -33 -147 7
-4 16 -5 20 -2 7 4 49 89 81 163 7 14 3 -22 -9 -105 -3 -22 -8 -43 -11 -47 -5
-9 -7 -9 130 -11 60 -1 110 1 112 4 4 5 -61 223 -83 279 -7 20 -5 31 10 53 30
42 20 113 -20 147 l-29 25 1 155 1 155 148 49 c132 44 172 62 135 63 -7 0
-206 64 -443 143 -1082 358 -1423 470 -1432 469 -4 0 -17 -4 -28 -9z"/>
<path d="M1348 4156 c23 -21 60 -54 83 -74 l40 -37 0 -325 c0 -179 0 -350 -1
-381 l0 -56 -259 0 c-229 0 -262 -2 -286 -17 -14 -9 -30 -27 -34 -39 -5 -12
-9 -98 -9 -192 0 -93 -1 -182 -1 -196 l-1 -26 -113 -1 c-62 -1 -124 -5 -138
-11 -58 -21 -56 12 -55 -1068 l1 -993 28 -27 27 -28 798 -1 c439 -1 823 -4
853 -8 189 -23 343 -196 353 -396 3 -46 20 -76 56 -95 64 -33 127 9 136 91 11
115 30 167 88 243 61 81 162 141 266 158 14 2 389 4 833 5 770 1 809 2 831 19
13 11 28 31 33 46 11 33 10 1978 0 2010 -16 46 -49 55 -193 55 l-134 -1 -1 27
c0 15 0 103 0 196 0 181 -7 214 -51 237 -15 8 -100 12 -265 12 l-243 1 -1 148
c0 81 0 177 0 213 0 36 0 141 0 234 l1 169 79 69 c44 37 78 69 76 71 -1 2 -19
-4 -39 -12 -20 -8 -40 -15 -44 -16 -4 0 -27 -7 -52 -14 -25 -8 -151 -48 -280
-90 -129 -41 -336 -107 -460 -146 -124 -40 -250 -80 -280 -90 -30 -10 -101
-33 -157 -50 -113 -35 -90 -37 -278 23 -60 19 -218 70 -350 112 -132 42 -296
95 -365 117 -69 22 -210 67 -313 99 -104 33 -196 63 -205 66 -10 3 2 -11 26
-31z m1302 -1345 l0 -278 -71 69 c-127 123 -286 182 -489 180 -74 0 -87 -3
-102 -22 -22 -27 -23 -59 -4 -86 12 -16 31 -20 138 -25 135 -6 204 -25 287
-79 89 -57 166 -149 204 -247 16 -41 21 -61 33 -133 l6 -34 -69 65 c-100 94
-218 156 -334 175 -66 11 -511 12 -535 1 -33 -14 -44 -47 -28 -85 7 -18 19
-32 26 -33 7 -1 119 -2 248 -3 262 -3 310 -10 410 -62 158 -83 247 -212 276
-401 l5 -38 -43 45 c-68 69 -119 107 -199 145 -109 51 -182 63 -397 63 -177 1
-188 0 -209 -20 -28 -26 -29 -58 -5 -88 16 -20 25 -21 222 -24 182 -2 212 -5
273 -25 127 -43 233 -132 296 -251 47 -89 58 -149 60 -338 l2 -172 -61 39
c-34 22 -91 50 -128 63 l-67 23 -660 1 -660 1 -1 927 -2 926 789 0 789 0 0
-279z m1705 -644 c0 -506 -4 -921 -8 -924 -5 -3 -296 -5 -647 -6 -562 0 -646
-2 -702 -17 -70 -18 -135 -50 -187 -88 l-33 -26 4 194 c4 186 5 198 32 265 68
166 192 274 371 322 11 3 111 7 223 8 134 2 208 7 217 15 7 6 17 25 21 43 5
26 2 35 -21 54 -26 23 -31 23 -208 22 -99 -1 -210 -8 -246 -15 -128 -24 -235
-81 -330 -175 l-63 -62 6 48 c28 201 172 368 370 430 51 15 98 18 314 20 236
1 256 3 268 20 15 20 18 63 6 81 -17 27 -57 31 -292 29 -263 -2 -311 -9 -428
-61 -65 -28 -150 -90 -206 -149 l-38 -40 7 50 c26 185 149 340 328 412 50 20
86 26 182 30 153 7 170 18 156 105 -4 28 -150 40 -256 22 -128 -21 -253 -84
-347 -174 l-68 -65 0 277 0 278 787 -2 788 -3 0 -918z m-3474 436 c0 -10 1
-343 1 -741 0 -398 3 -735 7 -750 4 -14 19 -34 33 -45 25 -18 50 -19 724 -20
725 0 734 -1 814 -42 57 -30 124 -106 149 -170 30 -74 45 -92 83 -100 56 -13
85 10 128 100 45 94 93 144 179 184 l56 26 711 1 c515 1 717 5 732 13 52 28
51 16 51 757 0 379 0 715 1 747 l0 57 70 0 c66 0 70 -1 70 -22 1 -29 1 -1711
0 -1720 0 -3 -341 -6 -757 -6 -417 0 -774 -3 -793 -6 -59 -11 -132 -37 -195
-70 -57 -30 -165 -125 -199 -176 l-16 -24 -17 24 c-85 122 -229 213 -383 242
-34 6 -345 11 -809 12 l-753 1 1 830 c0 457 1 849 1 873 l0 42 55 0 c45 0 55
-3 56 -17z"/>
<path d="M1286 2779 c-70 -8 -96 -60 -51 -104 23 -24 29 -25 163 -25 119 0
143 3 160 18 33 28 36 57 10 87 -22 26 -28 27 -128 28 -58 1 -127 -1 -154 -4z"/>
<path d="M1712 2780 c-23 -4 -47 -11 -53 -17 -18 -18 -19 -66 -3 -88 13 -18
26 -20 126 -20 108 0 111 1 131 27 23 31 17 72 -12 87 -23 13 -132 19 -189 11z"/>
<path d="M1328 2397 c-28 -10 -38 -25 -38 -59 0 -54 26 -64 162 -63 68 0 129
4 136 9 39 24 32 98 -10 112 -32 11 -222 12 -250 1z"/>
<path d="M3563 2782 c-59 -6 -83 -73 -41 -112 20 -19 33 -20 127 -18 98 3 105
4 123 29 23 30 16 74 -13 90 -19 10 -137 17 -196 11z"/>
<path d="M3916 2782 c-44 -4 -62 -18 -71 -55 -5 -20 -1 -32 19 -51 24 -25 28
-26 164 -26 118 0 143 3 161 18 31 25 34 58 8 88 -22 25 -28 26 -132 27 -61 1
-128 1 -149 -1z"/>
<path d="M3850 2398 c-45 -17 -45 -99 1 -116 11 -4 72 -8 134 -7 126 1 155 13
155 65 0 52 -29 64 -155 65 -63 0 -124 -3 -135 -7z"/>
</g>
</svg>
